<?xml version="1.0" ?><svg data-name="Layer 1" id="Layer_1" viewBox="0 0 64 64" xmlns="http://www.w3.org/2000/svg"><title/><path d="M39,36.97V33a4,4,0,0,1,4-4h4.64a4.165,4.165,0,0,0,.71-.06L59,27a9.153,9.153,0,0,0-2.21,9.37l.2.59Z" style="fill:#2d3142"/><path d="M35,61H61V53a2,2,0,0,0-2-2l-6-2-5,8-5-8-6,2a2,2,0,0,0-2,2Z" style="fill:#4361ee"/><path d="M40,36.694l1.224-2.545a1.972,1.972,0,0,1,2.422-1.042L47.368,34.4a1.916,1.916,0,0,0,1.264,0l3.722-1.289a1.972,1.972,0,0,1,2.422,1.042L56,36.694a2.081,2.081,0,0,1,0,4.158v1.1a8.355,8.355,0,0,1-4.422,7.437l-2.684,1.395a1.934,1.934,0,0,1-1.788,0l-2.684-1.395A8.355,8.355,0,0,1,40,41.949v-1.1a2.081,2.081,0,0,1,0-4.158Z" style="fill:#fec3a6"/><path d="M3,16c0,6.289,6.871,11.535,16,12.74,1.292.17,6.63,6.26,8,6.26,1.02,0-1.979-6.05-1-6.145C35.623,27.914,43,22.517,43,16,43,8.82,34.046,3,23,3S3,8.82,3,16Z" style="fill:#e9ff70"/><circle cx="23" cy="25" r="1"/><path d="M59.178,50.005l-4.732-1.577A9.415,9.415,0,0,0,57,41.949v-.273a3.1,3.1,0,0,0,.841-5.32l-.1-.3a8.105,8.105,0,0,1,1.969-8.346,1,1,0,0,0-.886-1.691L48.179,27.955A3.205,3.205,0,0,1,47.64,28H43a5.006,5.006,0,0,0-5,5v3.482a3.114,3.114,0,0,0,1,5.194v.273a9.415,9.415,0,0,0,2.554,6.479l-4.732,1.577A3,3,0,0,0,34,53v8a1,1,0,0,0,1,1H61a1,1,0,0,0,1-1V53A3,3,0,0,0,59.178,50.005ZM40,33a3,3,0,0,1,3-3h4.64a5.18,5.18,0,0,0,.889-.076l8.115-1.478a10.036,10.036,0,0,0-1.316,4.719,2.959,2.959,0,0,0-3.3-1l-3.722,1.29a.938.938,0,0,1-.61,0l-3.722-1.29a2.978,2.978,0,0,0-3.65,1.554L40,34.387Zm1,8.949v-1.1a1,1,0,0,0-1-1,1.082,1.082,0,0,1,0-2.158,1,1,0,0,0,.9-.566l1.224-2.545A.992.992,0,0,1,43.012,34a.937.937,0,0,1,.306.052l3.723,1.289a2.932,2.932,0,0,0,1.918,0l3.723-1.289a.97.97,0,0,1,1.193.531L55.1,37.128a1,1,0,0,0,.9.566,1.082,1.082,0,0,1,0,2.158,1,1,0,0,0-1,1v1.1a7.314,7.314,0,0,1-3.883,6.55l-2.683,1.395a.938.938,0,0,1-.868,0L44.883,48.5A7.314,7.314,0,0,1,41,41.949Zm9.537,9.105L48,55.113l-2.537-4.059,1.182.614a2.939,2.939,0,0,0,2.71,0ZM60,60H36V53a1,1,0,0,1,1-1,1,1,0,0,0,.316-.051L42.569,50.2l4.583,7.332a1.039,1.039,0,0,0,1.7,0L53.431,50.2l5.253,1.751A1,1,0,0,0,59,52a1,1,0,0,1,1,1Z"/><path d="M18.808,29.718a22.526,22.526,0,0,1,3.219,2.7C24.77,34.964,25.987,36,27,36a1.168,1.168,0,0,0,.959-.486c.511-.7.217-1.7-.5-3.873-.176-.539-.436-1.33-.571-1.879C36.852,28.536,44,22.831,44,16,44,8.28,34.58,2,23,2S2,8.28,2,16C2,22.667,9.1,28.442,18.808,29.718ZM23,4C33.477,4,42,9.383,42,16c0,5.864-6.92,10.962-16.1,11.859a1.182,1.182,0,0,0-.879.533c-.466.715-.154,1.761.538,3.872.088.269.191.584.289.9-.8-.659-1.769-1.561-2.465-2.205-2.365-2.192-3.411-3.1-4.255-3.207C10.363,26.592,4,21.651,4,16,4,9.383,12.523,4,23,4Z"/><path d="M19,15h4a1,1,0,0,0,1-1V12H22v1H20V9h6v5.586l-3.707,3.707A1,1,0,0,0,22,19v3h2V19.414l3.707-3.707A1,1,0,0,0,28,15V8a1,1,0,0,0-1-1H19a1,1,0,0,0-1,1v6A1,1,0,0,0,19,15Z"/></svg>